# MagicaVoxel @ Ephtracy

# group
o 

# material
mtllib banca.mtl
usemtl palette

# normals
vn -1 0 0
vn 1 0 0
vn 0 0 1
vn 0 0 -1
vn 0 -1 0
vn 0 1 0

# texcoords
vt 0.537109 0.5
vt 0.701172 0.5

# verts
v -1.7 0 0.8
v -1.7 0 0.7
v -1.7 0 0.1
v -1.7 0 -5.96046e-08
v -1.7 0.1 0.8
v -1.7 0.1 0.7
v -1.7 0.1 0.1
v -1.7 0.1 -5.96046e-08
v -1.7 0.2 0.7
v -1.7 0.2 0.1
v -1.7 0.3 0.8
v -1.7 0.3 0.7
v -1.7 0.4 0.7
v -1.7 0.4 0.6
v -1.7 0.4 0.5
v -1.7 0.4 0.4
v -1.7 0.4 0.3
v -1.7 0.4 0.2
v -1.7 0.5 0.6
v -1.7 0.5 0.5
v -1.7 0.5 0.4
v -1.7 0.5 0.3
v -1.7 0.5 0.2
v -1.7 0.8 0.2
v -1.7 0.8 0.1
v -1.7 0.9 0.1
v -1.7 0.9 -5.96046e-08
v 0.5 0 0.8
v 0.5 0 0.7
v 0.5 0 0.1
v 0.5 0 -5.96046e-08
v 0.5 0.1 0.8
v 0.5 0.1 0.7
v 0.5 0.1 0.1
v 0.5 0.1 -5.96046e-08
v 0.5 0.2 0.8
v 0.5 0.2 0.7
v 0.5 0.2 0.1
v 0.5 0.2 -5.96046e-08
v -1.6 0 0.8
v -1.6 0 0.7
v -1.6 0 0.1
v -1.6 0 -5.96046e-08
v -1.6 0.1 0.8
v -1.6 0.1 0.7
v -1.6 0.1 0.1
v -1.6 0.1 -5.96046e-08
v -1.6 0.2 0.8
v -1.6 0.2 0.7
v -1.6 0.2 0.1
v -1.6 0.2 -5.96046e-08
v 0.6 0 0.8
v 0.6 0 0.7
v 0.6 0 0.1
v 0.6 0 -5.96046e-08
v 0.6 0.1 0.8
v 0.6 0.1 0.7
v 0.6 0.1 0.1
v 0.6 0.1 -5.96046e-08
v 0.6 0.2 0.7
v 0.6 0.2 0.1
v 0.6 0.3 0.8
v 0.6 0.3 0.7
v 0.6 0.4 0.7
v 0.6 0.4 0.6
v 0.6 0.4 0.5
v 0.6 0.4 0.4
v 0.6 0.4 0.3
v 0.6 0.4 0.2
v 0.6 0.5 0.6
v 0.6 0.5 0.5
v 0.6 0.5 0.4
v 0.6 0.5 0.3
v 0.6 0.5 0.2
v 0.6 0.8 0.2
v 0.6 0.8 0.1
v 0.6 0.9 0.1
v 0.6 0.9 -5.96046e-08
v -1.7 0 0.8
v -1.7 0.1 0.8
v -1.7 0.3 0.8
v -1.6 0 0.8
v -1.6 0.1 0.8
v -1.6 0.2 0.8
v 0.5 0 0.8
v 0.5 0.1 0.8
v 0.5 0.2 0.8
v 0.6 0 0.8
v 0.6 0.1 0.8
v 0.6 0.3 0.8
v -1.7 0.3 0.7
v -1.7 0.4 0.7
v 0.6 0.3 0.7
v 0.6 0.4 0.7
v -1.7 0.4 0.6
v -1.7 0.5 0.6
v 0.6 0.4 0.6
v 0.6 0.5 0.6
v -1.7 0.5 0.2
v -1.7 0.8 0.2
v 0.6 0.5 0.2
v 0.6 0.8 0.2
v -1.7 0 0.1
v -1.7 0.1 0.1
v -1.7 0.2 0.1
v -1.7 0.8 0.1
v -1.7 0.9 0.1
v -1.6 0 0.1
v -1.6 0.1 0.1
v -1.6 0.2 0.1
v 0.5 0 0.1
v 0.5 0.1 0.1
v 0.5 0.2 0.1
v 0.6 0 0.1
v 0.6 0.1 0.1
v 0.6 0.2 0.1
v 0.6 0.8 0.1
v 0.6 0.9 0.1
v -1.7 0 0.7
v -1.7 0.1 0.7
v -1.7 0.2 0.7
v -1.6 0 0.7
v -1.6 0.1 0.7
v -1.6 0.2 0.7
v 0.5 0 0.7
v 0.5 0.1 0.7
v 0.5 0.2 0.7
v 0.6 0 0.7
v 0.6 0.1 0.7
v 0.6 0.2 0.7
v -1.7 0 -5.96046e-08
v -1.7 0.1 -5.96046e-08
v -1.7 0.9 -5.96046e-08
v -1.6 0 -5.96046e-08
v -1.6 0.1 -5.96046e-08
v -1.6 0.2 -5.96046e-08
v 0.5 0 -5.96046e-08
v 0.5 0.1 -5.96046e-08
v 0.5 0.2 -5.96046e-08
v 0.6 0 -5.96046e-08
v 0.6 0.1 -5.96046e-08
v 0.6 0.9 -5.96046e-08
v -1.7 0 0.8
v -1.6 0 0.8
v 0.5 0 0.8
v 0.6 0 0.8
v -1.7 0 0.7
v -1.6 0 0.7
v 0.5 0 0.7
v 0.6 0 0.7
v -1.7 0 0.1
v -1.6 0 0.1
v 0.5 0 0.1
v 0.6 0 0.1
v -1.7 0 -5.96046e-08
v -1.6 0 -5.96046e-08
v 0.5 0 -5.96046e-08
v 0.6 0 -5.96046e-08
v -1.6 0.2 0.8
v 0.5 0.2 0.8
v -1.7 0.2 0.7
v -1.6 0.2 0.7
v 0.5 0.2 0.7
v 0.6 0.2 0.7
v -1.7 0.2 0.1
v -1.6 0.2 0.1
v 0.5 0.2 0.1
v 0.6 0.2 0.1
v -1.6 0.2 -5.96046e-08
v 0.5 0.2 -5.96046e-08
v -1.7 0.3 0.8
v 0.6 0.3 0.8
v -1.7 0.3 0.7
v 0.6 0.3 0.7
v -1.7 0.4 0.7
v 0.6 0.4 0.7
v -1.7 0.4 0.6
v 0.6 0.4 0.6
v -1.7 0.5 0.6
v 0.6 0.5 0.6
v -1.7 0.5 0.5
v 0.6 0.5 0.5
v -1.7 0.5 0.4
v 0.6 0.5 0.4
v -1.7 0.5 0.3
v 0.6 0.5 0.3
v -1.7 0.5 0.2
v 0.6 0.5 0.2
v -1.7 0.8 0.2
v 0.6 0.8 0.2
v -1.7 0.8 0.1
v 0.6 0.8 0.1
v -1.7 0.9 0.1
v 0.6 0.9 0.1
v -1.7 0.9 -5.96046e-08
v 0.6 0.9 -5.96046e-08

# faces
f 5/2/1 2/2/1 1/2/1
f 6/2/1 2/2/1 5/2/1
f 7/2/1 4/2/1 3/2/1
f 8/2/1 4/2/1 7/2/1
f 9/1/1 6/1/1 5/1/1
f 10/1/1 8/1/1 7/1/1
f 11/1/1 9/1/1 5/1/1
f 11/1/1 10/1/1 9/1/1
f 12/1/1 10/1/1 11/1/1
f 13/1/1 10/1/1 12/1/1
f 14/1/1 10/1/1 13/1/1
f 15/1/1 10/1/1 14/1/1
f 16/1/1 10/1/1 15/1/1
f 17/1/1 10/1/1 16/1/1
f 18/1/1 10/1/1 17/1/1
f 19/1/1 15/1/1 14/1/1
f 20/2/1 16/2/1 15/2/1
f 20/1/1 15/1/1 19/1/1
f 21/1/1 17/1/1 16/1/1
f 21/2/1 16/2/1 20/2/1
f 22/2/1 18/2/1 17/2/1
f 22/1/1 17/1/1 21/1/1
f 23/1/1 10/1/1 18/1/1
f 23/2/1 18/2/1 22/2/1
f 24/1/1 10/1/1 23/1/1
f 25/1/1 8/1/1 10/1/1
f 25/1/1 10/1/1 24/1/1
f 26/1/1 8/1/1 25/1/1
f 27/1/1 8/1/1 26/1/1
f 32/2/1 29/2/1 28/2/1
f 33/2/1 29/2/1 32/2/1
f 34/2/1 31/2/1 30/2/1
f 35/2/1 31/2/1 34/2/1
f 36/1/1 33/1/1 32/1/1
f 37/1/1 33/1/1 36/1/1
f 38/1/1 35/1/1 34/1/1
f 39/1/1 35/1/1 38/1/1
f 40/2/2 41/2/2 44/2/2
f 44/2/2 41/2/2 45/2/2
f 42/2/2 43/2/2 46/2/2
f 46/2/2 43/2/2 47/2/2
f 44/1/2 45/1/2 48/1/2
f 48/1/2 45/1/2 49/1/2
f 46/1/2 47/1/2 50/1/2
f 50/1/2 47/1/2 51/1/2
f 52/2/2 53/2/2 56/2/2
f 56/2/2 53/2/2 57/2/2
f 54/2/2 55/2/2 58/2/2
f 58/2/2 55/2/2 59/2/2
f 56/1/2 57/1/2 60/1/2
f 58/1/2 59/1/2 61/1/2
f 56/1/2 60/1/2 62/1/2
f 60/1/2 61/1/2 62/1/2
f 62/1/2 61/1/2 63/1/2
f 63/1/2 61/1/2 64/1/2
f 64/1/2 61/1/2 65/1/2
f 65/1/2 61/1/2 66/1/2
f 66/1/2 61/1/2 67/1/2
f 67/1/2 61/1/2 68/1/2
f 68/1/2 61/1/2 69/1/2
f 65/1/2 66/1/2 70/1/2
f 66/2/2 67/2/2 71/2/2
f 70/1/2 66/1/2 71/1/2
f 67/1/2 68/1/2 72/1/2
f 71/2/2 67/2/2 72/2/2
f 68/2/2 69/2/2 73/2/2
f 72/1/2 68/1/2 73/1/2
f 69/1/2 61/1/2 74/1/2
f 73/2/2 69/2/2 74/2/2
f 74/1/2 61/1/2 75/1/2
f 61/1/2 59/1/2 76/1/2
f 75/1/2 61/1/2 76/1/2
f 76/1/2 59/1/2 77/1/2
f 77/1/2 59/1/2 78/1/2
f 82/2/3 80/2/3 79/2/3
f 83/1/3 81/1/3 80/1/3
f 83/2/3 80/2/3 82/2/3
f 84/1/3 81/1/3 83/1/3
f 87/1/3 81/1/3 84/1/3
f 88/2/3 86/2/3 85/2/3
f 89/1/3 87/1/3 86/1/3
f 89/2/3 86/2/3 88/2/3
f 90/1/3 81/1/3 87/1/3
f 90/1/3 87/1/3 89/1/3
f 93/1/3 92/1/3 91/1/3
f 94/1/3 92/1/3 93/1/3
f 97/1/3 96/1/3 95/1/3
f 98/1/3 96/1/3 97/1/3
f 101/1/3 100/1/3 99/1/3
f 102/1/3 100/1/3 101/1/3
f 108/2/3 104/2/3 103/2/3
f 109/1/3 105/1/3 104/1/3
f 109/2/3 104/2/3 108/2/3
f 110/1/3 105/1/3 109/1/3
f 114/2/3 112/2/3 111/2/3
f 115/1/3 113/1/3 112/1/3
f 115/2/3 112/2/3 114/2/3
f 116/1/3 113/1/3 115/1/3
f 117/1/3 107/1/3 106/1/3
f 118/1/3 107/1/3 117/1/3
f 119/2/4 120/2/4 122/2/4
f 120/1/4 121/1/4 123/1/4
f 122/2/4 120/2/4 123/2/4
f 123/1/4 121/1/4 124/1/4
f 125/2/4 126/2/4 128/2/4
f 126/1/4 127/1/4 129/1/4
f 128/2/4 126/2/4 129/2/4
f 129/1/4 127/1/4 130/1/4
f 131/2/4 132/2/4 134/2/4
f 132/1/4 133/1/4 135/1/4
f 134/2/4 132/2/4 135/2/4
f 135/1/4 133/1/4 136/1/4
f 136/1/4 133/1/4 139/1/4
f 137/2/4 138/2/4 140/2/4
f 138/1/4 139/1/4 141/1/4
f 140/2/4 138/2/4 141/2/4
f 139/1/4 133/1/4 142/1/4
f 141/1/4 139/1/4 142/1/4
f 147/2/5 144/2/5 143/2/5
f 148/2/5 144/2/5 147/2/5
f 149/2/5 146/2/5 145/2/5
f 150/2/5 146/2/5 149/2/5
f 155/2/5 152/2/5 151/2/5
f 156/2/5 152/2/5 155/2/5
f 157/2/5 154/2/5 153/2/5
f 158/2/5 154/2/5 157/2/5
f 162/1/5 160/1/5 159/1/5
f 163/1/5 160/1/5 162/1/5
f 165/1/5 162/1/5 161/1/5
f 165/1/5 164/1/5 163/1/5
f 165/1/5 163/1/5 162/1/5
f 166/1/5 164/1/5 165/1/5
f 167/1/5 164/1/5 166/1/5
f 168/1/5 164/1/5 167/1/5
f 169/1/5 167/1/5 166/1/5
f 170/1/5 167/1/5 169/1/5
f 171/1/6 172/1/6 173/1/6
f 173/1/6 172/1/6 174/1/6
f 175/1/6 176/1/6 177/1/6
f 177/1/6 176/1/6 178/1/6
f 179/1/6 180/1/6 181/1/6
f 181/1/6 180/1/6 182/1/6
f 181/2/6 182/2/6 183/2/6
f 183/2/6 182/2/6 184/2/6
f 183/1/6 184/1/6 185/1/6
f 185/1/6 184/1/6 186/1/6
f 185/2/6 186/2/6 187/2/6
f 187/2/6 186/2/6 188/2/6
f 189/1/6 190/1/6 191/1/6
f 191/1/6 190/1/6 192/1/6
f 193/1/6 194/1/6 195/1/6
f 195/1/6 194/1/6 196/1/6
