# MagicaVoxel @ Ephtracy

# group
o 

# material
mtllib gir.mtl
usemtl palette

# normals
vn -1 0 0
vn 1 0 0
vn 0 0 1
vn 0 0 -1
vn 0 -1 0
vn 0 1 0

# texcoords
vt 0.0527344 0.5
vt 0.275391 0.5
vt 0.466797 0.5
vt 0.876953 0.5
vt 0.958984 0.5

# verts
v -0.4 0.6 -0.1
v -0.4 0.6 -0.2
v -0.4 0.9 -0.1
v -0.4 0.9 -0.2
v -0.4 1 0.3
v -0.4 1 -0.3
v -0.4 1.7 0.3
v -0.4 1.7 -0.2
v -0.4 1.7 -0.3
v -0.4 2 -0.2
v -0.4 2 -0.3
v -0.3 0.4 -2.98023e-08
v -0.3 0.4 -0.3
v -0.3 0.6 -0.1
v -0.3 0.6 -0.2
v -0.3 0.9 -0.1
v -0.3 0.9 -0.2
v -0.3 1 -2.98023e-08
v -0.3 1 -0.3
v -0.2 0 -0.1
v -0.2 0 -0.2
v -0.2 0.4 -0.1
v -0.2 0.4 -0.2
v -0.1 0.5 -0.3
v -0.1 0.5 -0.4
v -0.1 0.6 -0.3
v -0.1 0.6 -0.4
v -0.1 0.9 0.3
v -0.1 0.9 0.2
v -0.1 1 0.3
v -0.1 1 0.2
v 0 0 -0.1
v 0 0 -0.2
v 0 0.4 -0.1
v 0 0.4 -0.2
v 0.2 1.7 -0.2
v 0.2 1.7 -0.3
v 0.2 2 -0.2
v 0.2 2 -0.3
v -0.3 1.7 -0.2
v -0.3 1.7 -0.3
v -0.3 2 -0.2
v -0.3 2 -0.3
v -0.1 0 -0.1
v -0.1 0 -0.2
v -0.1 0.4 -0.1
v -0.1 0.4 -0.2
v 0 0.5 -0.3
v 0 0.5 -0.4
v 0 0.6 -0.3
v 0 0.6 -0.4
v 0 0.9 0.3
v 0 0.9 0.2
v 0 1 0.3
v 0 1 0.2
v 0.1 0 -0.1
v 0.1 0 -0.2
v 0.1 0.4 -0.1
v 0.1 0.4 -0.2
v 0.2 0.4 -2.98023e-08
v 0.2 0.4 -0.3
v 0.2 0.6 -0.1
v 0.2 0.6 -0.2
v 0.2 0.9 -0.1
v 0.2 0.9 -0.2
v 0.2 1 -2.98023e-08
v 0.2 1 -0.3
v 0.3 0.6 -0.1
v 0.3 0.6 -0.2
v 0.3 0.9 -0.1
v 0.3 0.9 -0.2
v 0.3 1 0.3
v 0.3 1 -0.3
v 0.3 1.7 0.3
v 0.3 1.7 -0.2
v 0.3 1.7 -0.3
v 0.3 2 -0.2
v 0.3 2 -0.3
v -0.4 1 0.3
v -0.4 1.7 0.3
v -0.3 1.3 0.3
v -0.3 1.4 0.3
v -0.3 1.5 0.3
v -0.3 1.6 0.3
v -0.2 1.4 0.3
v -0.2 1.5 0.3
v -0.1 0.9 0.3
v -0.1 1 0.3
v -0.1 1.1 0.3
v -0.1 1.2 0.3
v -0.1 1.3 0.3
v -0.1 1.6 0.3
v 0 0.9 0.3
v 0 1 0.3
v 0 1.1 0.3
v 0 1.2 0.3
v 0 1.3 0.3
v 0 1.4 0.3
v 0 1.5 0.3
v 0 1.6 0.3
v 0.1 1.4 0.3
v 0.1 1.5 0.3
v 0.2 1.3 0.3
v 0.2 1.6 0.3
v 0.3 1 0.3
v 0.3 1.7 0.3
v -0.3 0.4 -2.98023e-08
v -0.3 1 -2.98023e-08
v 0.2 0.4 -2.98023e-08
v 0.2 1 -2.98023e-08
v -0.4 0.6 -0.1
v -0.4 0.9 -0.1
v -0.3 0.6 -0.1
v -0.3 0.9 -0.1
v -0.2 0 -0.1
v -0.2 0.4 -0.1
v -0.1 0 -0.1
v -0.1 0.4 -0.1
v 0 0 -0.1
v 0 0.4 -0.1
v 0.1 0 -0.1
v 0.1 0.4 -0.1
v 0.2 0.6 -0.1
v 0.2 0.9 -0.1
v 0.3 0.6 -0.1
v 0.3 0.9 -0.1
v -0.4 1.7 -0.2
v -0.4 2 -0.2
v -0.3 1.7 -0.2
v -0.3 2 -0.2
v 0.2 1.7 -0.2
v 0.2 2 -0.2
v 0.3 1.7 -0.2
v 0.3 2 -0.2
v -0.1 0.9 0.2
v -0.1 1 0.2
v 0 0.9 0.2
v 0 1 0.2
v -0.4 0.6 -0.2
v -0.4 0.9 -0.2
v -0.3 0.6 -0.2
v -0.3 0.9 -0.2
v -0.2 0 -0.2
v -0.2 0.4 -0.2
v -0.1 0 -0.2
v -0.1 0.4 -0.2
v 0 0 -0.2
v 0 0.4 -0.2
v 0.1 0 -0.2
v 0.1 0.4 -0.2
v 0.2 0.6 -0.2
v 0.2 0.9 -0.2
v 0.3 0.6 -0.2
v 0.3 0.9 -0.2
v -0.4 1 -0.3
v -0.4 1.7 -0.3
v -0.4 2 -0.3
v -0.3 0.4 -0.3
v -0.3 1 -0.3
v -0.3 1.7 -0.3
v -0.3 2 -0.3
v -0.1 0.5 -0.3
v -0.1 0.6 -0.3
v 0 0.5 -0.3
v 0 0.6 -0.3
v 0.2 0.4 -0.3
v 0.2 1 -0.3
v 0.2 1.7 -0.3
v 0.2 2 -0.3
v 0.3 1 -0.3
v 0.3 1.7 -0.3
v 0.3 2 -0.3
v -0.1 0.5 -0.4
v -0.1 0.6 -0.4
v 0 0.5 -0.4
v 0 0.6 -0.4
v -0.2 0 -0.1
v -0.1 0 -0.1
v 0 0 -0.1
v 0.1 0 -0.1
v -0.2 0 -0.2
v -0.1 0 -0.2
v 0 0 -0.2
v 0.1 0 -0.2
v -0.3 0.4 -2.98023e-08
v 0.2 0.4 -2.98023e-08
v -0.2 0.4 -0.1
v -0.1 0.4 -0.1
v 0 0.4 -0.1
v 0.1 0.4 -0.1
v -0.2 0.4 -0.2
v -0.1 0.4 -0.2
v 0 0.4 -0.2
v 0.1 0.4 -0.2
v -0.3 0.4 -0.3
v 0.2 0.4 -0.3
v -0.1 0.5 -0.3
v 0 0.5 -0.3
v -0.1 0.5 -0.4
v 0 0.5 -0.4
v -0.4 0.6 -0.1
v -0.3 0.6 -0.1
v 0.2 0.6 -0.1
v 0.3 0.6 -0.1
v -0.4 0.6 -0.2
v -0.3 0.6 -0.2
v 0.2 0.6 -0.2
v 0.3 0.6 -0.2
v -0.1 0.9 0.3
v 0 0.9 0.3
v -0.1 0.9 0.2
v 0 0.9 0.2
v -0.4 1 0.3
v -0.1 1 0.3
v 0 1 0.3
v 0.3 1 0.3
v -0.1 1 0.2
v 0 1 0.2
v -0.3 1 -2.98023e-08
v 0.2 1 -2.98023e-08
v -0.4 1 -0.3
v -0.3 1 -0.3
v 0.2 1 -0.3
v 0.3 1 -0.3
v -0.1 0.6 -0.3
v 0 0.6 -0.3
v -0.1 0.6 -0.4
v 0 0.6 -0.4
v -0.4 0.9 -0.1
v -0.3 0.9 -0.1
v 0.2 0.9 -0.1
v 0.3 0.9 -0.1
v -0.4 0.9 -0.2
v -0.3 0.9 -0.2
v 0.2 0.9 -0.2
v 0.3 0.9 -0.2
v -0.4 1.7 0.3
v 0.3 1.7 0.3
v -0.4 1.7 -0.2
v -0.3 1.7 -0.2
v 0.2 1.7 -0.2
v 0.3 1.7 -0.2
v -0.3 1.7 -0.3
v 0.2 1.7 -0.3
v -0.4 2 -0.2
v -0.3 2 -0.2
v 0.2 2 -0.2
v 0.3 2 -0.2
v -0.4 2 -0.3
v -0.3 2 -0.3
v 0.2 2 -0.3
v 0.3 2 -0.3

# faces
f 3/4/1 2/4/1 1/4/1
f 4/4/1 2/4/1 3/4/1
f 7/3/1 6/3/1 5/3/1
f 8/3/1 6/3/1 7/3/1
f 9/3/1 6/3/1 8/3/1
f 10/4/1 9/4/1 8/4/1
f 11/4/1 9/4/1 10/4/1
f 14/3/1 13/3/1 12/3/1
f 15/3/1 13/3/1 14/3/1
f 16/3/1 14/3/1 12/3/1
f 17/3/1 13/3/1 15/3/1
f 18/3/1 16/3/1 12/3/1
f 18/3/1 17/3/1 16/3/1
f 19/3/1 13/3/1 17/3/1
f 19/3/1 17/3/1 18/3/1
f 22/4/1 21/4/1 20/4/1
f 23/4/1 21/4/1 22/4/1
f 26/4/1 25/4/1 24/4/1
f 27/4/1 25/4/1 26/4/1
f 30/1/1 29/1/1 28/1/1
f 31/1/1 29/1/1 30/1/1
f 34/4/1 33/4/1 32/4/1
f 35/4/1 33/4/1 34/4/1
f 38/4/1 37/4/1 36/4/1
f 39/4/1 37/4/1 38/4/1
f 40/4/2 41/4/2 42/4/2
f 42/4/2 41/4/2 43/4/2
f 44/4/2 45/4/2 46/4/2
f 46/4/2 45/4/2 47/4/2
f 48/4/2 49/4/2 50/4/2
f 50/4/2 49/4/2 51/4/2
f 52/1/2 53/1/2 54/1/2
f 54/1/2 53/1/2 55/1/2
f 56/4/2 57/4/2 58/4/2
f 58/4/2 57/4/2 59/4/2
f 60/3/2 61/3/2 62/3/2
f 62/3/2 61/3/2 63/3/2
f 60/3/2 62/3/2 64/3/2
f 63/3/2 61/3/2 65/3/2
f 60/3/2 64/3/2 66/3/2
f 64/3/2 65/3/2 66/3/2
f 65/3/2 61/3/2 67/3/2
f 66/3/2 65/3/2 67/3/2
f 68/4/2 69/4/2 70/4/2
f 70/4/2 69/4/2 71/4/2
f 72/3/2 73/3/2 74/3/2
f 74/3/2 73/3/2 75/3/2
f 75/3/2 73/3/2 76/3/2
f 75/4/2 76/4/2 77/4/2
f 77/4/2 76/4/2 78/4/2
f 81/3/3 80/3/3 79/3/3
f 82/3/3 80/3/3 81/3/3
f 83/3/3 80/3/3 82/3/3
f 84/3/3 80/3/3 83/3/3
f 85/5/3 82/5/3 81/5/3
f 85/4/3 83/4/3 82/4/3
f 86/5/3 84/5/3 83/5/3
f 86/4/3 83/4/3 85/4/3
f 88/3/3 81/3/3 79/3/3
f 89/3/3 81/3/3 88/3/3
f 90/3/3 81/3/3 89/3/3
f 91/5/3 85/5/3 81/5/3
f 91/3/3 81/3/3 90/3/3
f 91/5/3 86/5/3 85/5/3
f 92/5/3 84/5/3 86/5/3
f 92/5/3 86/5/3 91/5/3
f 92/3/3 80/3/3 84/3/3
f 93/1/3 88/1/3 87/1/3
f 94/3/3 89/3/3 88/3/3
f 94/1/3 88/1/3 93/1/3
f 95/4/3 90/4/3 89/4/3
f 95/3/3 89/3/3 94/3/3
f 96/3/3 91/3/3 90/3/3
f 96/4/3 90/4/3 95/4/3
f 96/3/3 92/3/3 91/3/3
f 97/3/3 92/3/3 96/3/3
f 98/3/3 92/3/3 97/3/3
f 99/3/3 92/3/3 98/3/3
f 100/3/3 80/3/3 92/3/3
f 100/3/3 92/3/3 99/3/3
f 101/4/3 99/4/3 98/4/3
f 101/5/3 98/5/3 97/5/3
f 102/5/3 100/5/3 99/5/3
f 102/4/3 99/4/3 101/4/3
f 103/3/3 95/3/3 94/3/3
f 103/5/3 101/5/3 97/5/3
f 103/5/3 102/5/3 101/5/3
f 103/3/3 97/3/3 96/3/3
f 103/3/3 96/3/3 95/3/3
f 104/5/3 100/5/3 102/5/3
f 104/5/3 102/5/3 103/5/3
f 104/3/3 80/3/3 100/3/3
f 105/3/3 103/3/3 94/3/3
f 105/3/3 104/3/3 103/3/3
f 106/3/3 80/3/3 104/3/3
f 106/3/3 104/3/3 105/3/3
f 109/3/3 108/3/3 107/3/3
f 110/3/3 108/3/3 109/3/3
f 113/4/3 112/4/3 111/4/3
f 114/4/3 112/4/3 113/4/3
f 117/4/3 116/4/3 115/4/3
f 118/4/3 116/4/3 117/4/3
f 121/4/3 120/4/3 119/4/3
f 122/4/3 120/4/3 121/4/3
f 125/4/3 124/4/3 123/4/3
f 126/4/3 124/4/3 125/4/3
f 129/4/3 128/4/3 127/4/3
f 130/4/3 128/4/3 129/4/3
f 133/4/3 132/4/3 131/4/3
f 134/4/3 132/4/3 133/4/3
f 135/1/4 136/1/4 137/1/4
f 137/1/4 136/1/4 138/1/4
f 139/4/4 140/4/4 141/4/4
f 141/4/4 140/4/4 142/4/4
f 143/4/4 144/4/4 145/4/4
f 145/4/4 144/4/4 146/4/4
f 147/4/4 148/4/4 149/4/4
f 149/4/4 148/4/4 150/4/4
f 151/4/4 152/4/4 153/4/4
f 153/4/4 152/4/4 154/4/4
f 155/3/4 156/3/4 159/3/4
f 156/4/4 157/4/4 160/4/4
f 159/3/4 156/3/4 160/3/4
f 160/4/4 157/4/4 161/4/4
f 158/3/4 159/3/4 162/3/4
f 159/3/4 160/3/4 162/3/4
f 162/3/4 160/3/4 163/3/4
f 158/3/4 162/3/4 164/3/4
f 163/3/4 160/3/4 165/3/4
f 158/3/4 164/3/4 166/3/4
f 164/3/4 165/3/4 166/3/4
f 165/3/4 160/3/4 167/3/4
f 166/3/4 165/3/4 167/3/4
f 167/3/4 160/3/4 168/3/4
f 167/3/4 168/3/4 170/3/4
f 168/4/4 169/4/4 171/4/4
f 170/3/4 168/3/4 171/3/4
f 171/4/4 169/4/4 172/4/4
f 173/4/4 174/4/4 175/4/4
f 175/4/4 174/4/4 176/4/4
f 181/4/5 178/4/5 177/4/5
f 182/4/5 178/4/5 181/4/5
f 183/4/5 180/4/5 179/4/5
f 184/4/5 180/4/5 183/4/5
f 187/3/5 186/3/5 185/3/5
f 188/3/5 186/3/5 187/3/5
f 189/3/5 186/3/5 188/3/5
f 190/3/5 186/3/5 189/3/5
f 191/3/5 187/3/5 185/3/5
f 192/3/5 189/3/5 188/3/5
f 193/3/5 189/3/5 192/3/5
f 194/3/5 186/3/5 190/3/5
f 195/3/5 193/3/5 192/3/5
f 195/3/5 194/3/5 193/3/5
f 195/3/5 191/3/5 185/3/5
f 195/3/5 192/3/5 191/3/5
f 196/3/5 186/3/5 194/3/5
f 196/3/5 194/3/5 195/3/5
f 199/4/5 198/4/5 197/4/5
f 200/4/5 198/4/5 199/4/5
f 205/4/5 202/4/5 201/4/5
f 206/4/5 202/4/5 205/4/5
f 207/4/5 204/4/5 203/4/5
f 208/4/5 204/4/5 207/4/5
f 211/1/5 210/1/5 209/1/5
f 212/1/5 210/1/5 211/1/5
f 217/3/5 214/3/5 213/3/5
f 218/3/5 216/3/5 215/3/5
f 219/3/5 217/3/5 213/3/5
f 219/3/5 218/3/5 217/3/5
f 220/3/5 216/3/5 218/3/5
f 220/3/5 218/3/5 219/3/5
f 221/3/5 219/3/5 213/3/5
f 222/3/5 219/3/5 221/3/5
f 223/3/5 216/3/5 220/3/5
f 224/3/5 216/3/5 223/3/5
f 225/4/6 226/4/6 227/4/6
f 227/4/6 226/4/6 228/4/6
f 229/4/6 230/4/6 233/4/6
f 233/4/6 230/4/6 234/4/6
f 231/4/6 232/4/6 235/4/6
f 235/4/6 232/4/6 236/4/6
f 237/3/6 238/3/6 239/3/6
f 239/3/6 238/3/6 240/3/6
f 240/3/6 238/3/6 241/3/6
f 241/3/6 238/3/6 242/3/6
f 240/3/6 241/3/6 243/3/6
f 243/3/6 241/3/6 244/3/6
f 245/4/6 246/4/6 249/4/6
f 249/4/6 246/4/6 250/4/6
f 247/4/6 248/4/6 251/4/6
f 251/4/6 248/4/6 252/4/6
